HIERARCHY
ROOT reference
{
  OFFSET 0 0 0
  CHANNELS 6 Xposition Yposition Zposition Zrotation Xrotation Yrotation
  JOINT Hips
  {
    OFFSET 350.331 86.7696 215.823
    CHANNELS 3 Zrotation Xrotation Yrotation
    JOINT RightUpLeg
    {
      OFFSET -9.29271 -1.56052 -0.0234997
      CHANNELS 3 Zrotation Xrotation Yrotation
      JOINT RightLeg
      {
        OFFSET -0.0199852 -41.8973 0.0465042
        CHANNELS 3 Zrotation Xrotation Yrotation
        JOINT RightFoot
        {
          OFFSET -0.344404 -43.5008 0.46033
          CHANNELS 3 Zrotation Xrotation Yrotation
          End Site
          {
            OFFSET 0 -7.69 17.5
          }
        }
      }
    }
    JOINT LeftUpLeg
    {
      OFFSET 9.27671 -1.61046 0.00923455
      CHANNELS 3 Zrotation Xrotation Yrotation
      JOINT LeftLeg
      {
        OFFSET 0.0572944 -41.8832 0.025786
        CHANNELS 3 Zrotation Xrotation Yrotation
        JOINT LeftFoot
        {
          OFFSET 0.630082 -40.4663 0.064708
          CHANNELS 3 Zrotation Xrotation Yrotation
          End Site
          {
            OFFSET 0 -7.69 17.5
          }
        }
      }
    }
    JOINT Spine
    {
      OFFSET 0.0336257 14.3009 0.0467062
      CHANNELS 3 Zrotation Xrotation Yrotation
      JOINT Spine1
      {
        OFFSET 0.0295985 9.72711 0.0239471
        CHANNELS 3 Zrotation Xrotation Yrotation
        JOINT Spine2
        {
          OFFSET 0.0515174 10.1206 0.00128176
          CHANNELS 3 Zrotation Xrotation Yrotation
          JOINT Spine3
          {
            OFFSET 0.0546141 9.71668 0.0122483
            CHANNELS 3 Zrotation Xrotation Yrotation
            JOINT Neck
            {
              OFFSET 0.0872189 10.3831 0.0511468
              CHANNELS 3 Zrotation Xrotation Yrotation
              JOINT Head
              {
                OFFSET 0.0544 9.47189 0.0313815
                CHANNELS 3 Zrotation Xrotation Yrotation
                End Site
                {
                  OFFSET 0 15.95 0
                }
              }
            }
            JOINT RightShoulder
            {
              OFFSET -3.15364 6.93551 0.0260198
              CHANNELS 3 Zrotation Xrotation Yrotation
              JOINT RightArm
              {
                OFFSET -12.7567 0.0626665 0.0664987
                CHANNELS 3 Zrotation Xrotation Yrotation
                JOINT RightForeArm
                {
                  OFFSET -26.5087 -0.073346 0.274032
                  CHANNELS 3 Zrotation Xrotation Yrotation
                  JOINT RightHand
                  {
                    OFFSET -26.0005 -0.196673 0.105827
                    CHANNELS 3 Zrotation Xrotation Yrotation
                    JOINT RightHandThumb1
                    {
                      OFFSET -2.48905 0.190105 3.12053
                      CHANNELS 3 Zrotation Xrotation Yrotation
                      JOINT RightHandThumb2
                      {
                        OFFSET -3.68274 0 0
                        CHANNELS 3 Zrotation Xrotation Yrotation
                        JOINT RightHandThumb3
                        {
                          OFFSET -2.55832 0 0
                          CHANNELS 3 Zrotation Xrotation Yrotation
                          End Site
                          {
                            OFFSET -2.194 0 0
                          }
                        }
                      }
                    }
                    JOINT RightInHandIndex
                    {
                      OFFSET -3.22368 0.508421 1.97842
                      CHANNELS 3 Zrotation Xrotation Yrotation
                      JOINT RightHandIndex1
                      {
                        OFFSET -5.21684 -0.091368 0.999158
                        CHANNELS 3 Zrotation Xrotation Yrotation
                        JOINT RightHandIndex2
                        {
                          OFFSET -3.61937 0 0
                          CHANNELS 3 Zrotation Xrotation Yrotation
                          JOINT RightHandIndex3
                          {
                            OFFSET -2.0521 0 0
                            CHANNELS 3 Zrotation Xrotation Yrotation
                            End Site
                            {
                              OFFSET -1.805 0 0
                            }
                          }
                        }
                      }
                    }
                    JOINT RightInHandMiddle
                    {
                      OFFSET -3.38211 0.517263 0.756737
                      CHANNELS 3 Zrotation Xrotation Yrotation
                      JOINT RightHandMiddle1
                      {
                        OFFSET -5.17411 -0.084 0.313895
                        CHANNELS 3 Zrotation Xrotation Yrotation
                        JOINT RightHandMiddle2
                        {
                          OFFSET -3.94947 0 0
                          CHANNELS 3 Zrotation Xrotation Yrotation
                          JOINT RightHandMiddle3
                          {
                            OFFSET -2.47579 0 0
                            CHANNELS 3 Zrotation Xrotation Yrotation
                            End Site
                            {
                              OFFSET -1.975 0 0
                            }
                          }
                        }
                      }
                    }
                    JOINT RightInHandRing
                    {
                      OFFSET -3.36516 0.537895 -0.128947
                      CHANNELS 3 Zrotation Xrotation Yrotation
                      JOINT RightHandRing1
                      {
                        OFFSET -4.63474 -0.022105 -0.478947
                        CHANNELS 3 Zrotation Xrotation Yrotation
                        JOINT RightHandRing2
                        {
                          OFFSET -3.44238 0 0
                          CHANNELS 3 Zrotation Xrotation Yrotation
                          JOINT RightHandRing3
                          {
                            OFFSET -2.3881 0 0
                            CHANNELS 3 Zrotation Xrotation Yrotation
                            End Site
                            {
                              OFFSET -1.857 0 0
                            }
                          }
                        }
                      }
                    }
                    JOINT RightInHandPinky
                    {
                      OFFSET -3.16105 0.469368 -1.20179
                      CHANNELS 3 Zrotation Xrotation Yrotation
                      JOINT RightHandPinky1
                      {
                        OFFSET -4.14105 -0.022105 -1.09053
                        CHANNELS 3 Zrotation Xrotation Yrotation
                        JOINT RightHandPinky2
                        {
                          OFFSET -2.75653 0 0
                          CHANNELS 3 Zrotation Xrotation Yrotation
                          JOINT RightHandPinky3
                          {
                            OFFSET -1.74189 0 0
                            CHANNELS 3 Zrotation Xrotation Yrotation
                            End Site
                            {
                              OFFSET -1.645 0 0
                            }
                          }
                        }
                      }
                    }
                  }
                }
              }
            }
            JOINT LeftShoulder
            {
              OFFSET 3.27252 6.91581 -0.0198585
              CHANNELS 3 Zrotation Xrotation Yrotation
              JOINT LeftArm
              {
                OFFSET 12.8319 -0.0466028 -0.0574599
                CHANNELS 3 Zrotation Xrotation Yrotation
                JOINT LeftForeArm
                {
                  OFFSET 26.4942 -0.039105 -0.0936
                  CHANNELS 3 Zrotation Xrotation Yrotation
                  JOINT LeftHand
                  {
                    OFFSET 26.0008 0.022674 -0.016655
                    CHANNELS 3 Zrotation Xrotation Yrotation
                    JOINT LeftHandThumb1
                    {
                      OFFSET 2.48905 0.190105 3.12053
                      CHANNELS 3 Zrotation Xrotation Yrotation
                      JOINT LeftHandThumb2
                      {
                        OFFSET 3.68274 0 0
                        CHANNELS 3 Zrotation Xrotation Yrotation
                        JOINT LeftHandThumb3
                        {
                          OFFSET 2.55832 0 0
                          CHANNELS 3 Zrotation Xrotation Yrotation
                          End Site
                          {
                            OFFSET 2.194 0 0
                          }
                        }
                      }
                    }
                    JOINT LeftInHandIndex
                    {
                      OFFSET 3.22368 0.508421 1.97842
                      CHANNELS 3 Zrotation Xrotation Yrotation
                      JOINT LeftHandIndex1
                      {
                        OFFSET 5.21684 -0.091368 0.999158
                        CHANNELS 3 Zrotation Xrotation Yrotation
                        JOINT LeftHandIndex2
                        {
                          OFFSET 3.61937 0 0
                          CHANNELS 3 Zrotation Xrotation Yrotation
                          JOINT LeftHandIndex3
                          {
                            OFFSET 2.0521 0 0
                            CHANNELS 3 Zrotation Xrotation Yrotation
                            End Site
                            {
                              OFFSET 1.805 0 0
                            }
                          }
                        }
                      }
                    }
                    JOINT LeftInHandMiddle
                    {
                      OFFSET 3.38211 0.517263 0.756737
                      CHANNELS 3 Zrotation Xrotation Yrotation
                      JOINT LeftHandMiddle1
                      {
                        OFFSET 5.17411 -0.084 0.313895
                        CHANNELS 3 Zrotation Xrotation Yrotation
                        JOINT LeftHandMiddle2
                        {
                          OFFSET 3.94947 0 0
                          CHANNELS 3 Zrotation Xrotation Yrotation
                          JOINT LeftHandMiddle3
                          {
                            OFFSET 2.47579 0 0
                            CHANNELS 3 Zrotation Xrotation Yrotation
                            End Site
                            {
                              OFFSET 1.975 0 0
                            }
                          }
                        }
                      }
                    }
                    JOINT LeftInHandRing
                    {
                      OFFSET 3.36516 0.537895 -0.128947
                      CHANNELS 3 Zrotation Xrotation Yrotation
                      JOINT LeftHandRing1
                      {
                        OFFSET 4.63474 -0.022105 -0.478947
                        CHANNELS 3 Zrotation Xrotation Yrotation
                        JOINT LeftHandRing2
                        {
                          OFFSET 3.44238 0 0
                          CHANNELS 3 Zrotation Xrotation Yrotation
                          JOINT LeftHandRing3
                          {
                            OFFSET 2.3881 0 0
                            CHANNELS 3 Zrotation Xrotation Yrotation
                            End Site
                            {
                              OFFSET 1.857 0 0
                            }
                          }
                        }
                      }
                    }
                    JOINT LeftInHandPinky
                    {
                      OFFSET 3.16105 0.469368 -1.20179
                      CHANNELS 3 Zrotation Xrotation Yrotation
                      JOINT LeftHandPinky1
                      {
                        OFFSET 4.14105 -0.022105 -1.09053
                        CHANNELS 3 Zrotation Xrotation Yrotation
                        JOINT LeftHandPinky2
                        {
                          OFFSET 2.75653 0 0
                          CHANNELS 3 Zrotation Xrotation Yrotation
                          JOINT LeftHandPinky3
                          {
                            OFFSET 1.74189 0 0
                            CHANNELS 3 Zrotation Xrotation Yrotation
                            End Site
                            {
                              OFFSET 1.645 0 0
                            }
                          }
                        }
                      }
                    }
                  }
                }
              }
            }
          }
        }
      }
    }
  }
}
MOTION
Frames:	4
Frame Time:	0.00833333
0 0 0 0 0 -0 22.8453 5.32543 -137.611 33.0429 -35.9637 28.2924 -4.11306 6.53819 6.48266 10.2537 18.5114 44.3595 37.2337 -9.72851 24.9556 -23.0389 43.0827 25.3898 1.85423 -26.5933 11.6812 -4.29737 -6.30778 -10.0284 -0.970236 -1.69101 -2.40499 -1.63795 -2.80563 -3.93075 -0.362065 0.101441 2.74234 -0.867488 -0.145224 34.4555 -7.04753 9.53502 30.1109 5.29333 8.1404 -8.78859 37.8779 -65.1028 -0.276245 21.224 -2.95432 127.853 9.04532 -28.5358 3.86731 28.184 10.7294 19.1592 2.34147e-14 0 -10 1.41296e-14 0 -10 9.52924e-15 -4.77083e-15 -4.22417e-15 19.9818 0.871897 2.3964 24 1.59028e-14 2.38542e-14 20 6.36111e-15 2.06736e-14 9.52924e-15 -4.77083e-15 -4.22417e-15 20 -1.59028e-15 1.03368e-14 24 7.95139e-15 1.27222e-14 20 7.95139e-16 3.33958e-14 9.52924e-15 -4.77083e-15 -4.22417e-15 19.9748 -1.02565 -2.81938 24 -4.77083e-15 2.06736e-14 20 -1.98785e-15 2.54444e-14 9.52924e-15 -4.77083e-15 -4.22417e-15 19.7815 -3.00948 -8.30515 24 -3.37934e-15 1.43125e-14 20 2.78299e-15 7.95139e-15 4.05621 -15.1483 -54.7576 -7.33191 23.9405 -116.617 29.5987 -18.4855 -38.4905 -36.8701 -9.35226 -15.0803 -28.184 10.7294 -19.1592 -5.0572e-15 -7.95139e-15 10 8.75048e-16 -9.54166e-15 10 8.89717e-15 3.24267e-15 3.18055e-15 -19.9818 0.871897 -2.3964 -24 -4.77083e-15 -1.59028e-14 -20 0 -1.59028e-14 8.89717e-15 3.24267e-15 3.18055e-15 -20 7.95139e-16 -6.36111e-15 -24 1.11319e-14 4.77083e-15 -20 1.59028e-15 -5.56597e-15 8.89717e-15 3.24267e-15 3.18055e-15 -19.9748 -1.02565 2.81938 -24 1.59028e-15 -0 -20 -6.36111e-15 7.15625e-15 8.89717e-15 3.24267e-15 3.18055e-15 -19.7815 -3.00948 8.30515 -24 0 3.97569e-15 -20 -2.38542e-15 -1.35174e-14 
0 0 0 0 0 -0 22.9071 5.40635 -137.629 33.1698 -35.9922 28.3851 -4.14724 6.601 6.46773 10.3149 18.4883 44.3047 37.3456 -9.7673 25.0307 -22.9979 43.1668 25.3213 1.92948 -26.5765 11.7175 -4.30678 -6.33143 -9.99946 -0.971326 -1.69227 -2.40075 -1.64165 -2.81494 -3.91783 -0.355083 0.107919 2.74113 -0.863501 -0.0577257 34.2053 -6.96226 9.46451 30.2347 5.34945 8.15873 -8.90673 38.1324 -64.8907 -0.087005 20.763 -3.17541 127.879 8.96602 -28.8493 3.95558 28.184 10.7294 19.1592 2.25626e-14 3.18055e-15 -10 1.21111e-14 0 -10 2.96935e-15 -4.77083e-15 -5.24295e-15 19.9818 0.871897 2.3964 24 1.27222e-14 2.46493e-14 20 8.74653e-15 1.90833e-14 2.96935e-15 -4.77083e-15 -5.24295e-15 20 -3.18055e-15 1.43125e-14 24 4.77083e-15 7.95139e-15 20 3.97569e-15 3.49861e-14 2.96935e-15 -4.77083e-15 -5.24295e-15 19.9748 -1.02565 -2.81938 24 -5.56597e-15 1.74931e-14 20 -1.98785e-15 1.90833e-14 2.96935e-15 -4.77083e-15 -5.24295e-15 19.7815 -3.00948 -8.30515 24 -3.37934e-15 1.11319e-14 20 3.97569e-15 1.27222e-14 4.12487 -15.1742 -54.7714 -7.41363 24.0185 -116.614 29.6909 -18.4431 -38.4703 -36.8458 -9.30112 -15.2093 -28.184 10.7294 -19.1592 5.37143e-15 1.59028e-15 10 8.14169e-15 -9.54166e-15 10 9.38015e-15 3.08116e-15 -0 -19.9818 0.871897 -2.3964 -24 -4.77083e-15 -2.22639e-14 -20 0 -1.74931e-14 9.38015e-15 3.08116e-15 -0 -20 2.38542e-15 -1.11319e-14 -24 7.95139e-15 3.18055e-15 -20 1.59028e-15 -7.15625e-15 9.38015e-15 3.08116e-15 -0 -19.9748 -1.02565 2.81938 -24 6.36111e-15 -0 -20 -3.18055e-15 6.36111e-15 9.38015e-15 3.08116e-15 -0 -19.7815 -3.00948 8.30515 -24 0 3.18055e-15 -20 -3.97569e-15 -1.43125e-14 
0 0 0 0 0 -0 22.9726 5.46333 -137.645 33.2939 -36.0449 28.5004 -4.18803 6.67025 6.45163 10.3873 18.4659 44.2448 37.4335 -9.83856 25.1305 -22.9276 43.2783 25.24 1.99874 -26.5787 11.7463 -4.30041 -6.33329 -9.98929 -0.970468 -1.69259 -2.39499 -1.63912 -2.81493 -3.91415 -0.351665 0.110637 2.7393 -0.860815 -0.0189356 34.1146 -6.91616 9.42712 30.2797 5.39792 8.12515 -8.96153 38.4641 -64.6637 0.222959 20.2699 -3.45928 127.883 8.86825 -29.2176 4.02519 28.184 10.7294 19.1592 1.48475e-14 6.36111e-15 -10 1.40401e-14 6.36111e-15 -10 8.41108e-15 -4.77083e-15 -5.66536e-15 19.9818 0.871897 2.3964 24 1.43125e-14 2.62396e-14 20 7.95139e-15 2.22639e-14 8.41108e-15 -4.77083e-15 -5.66536e-15 20 -1.59028e-15 1.11319e-14 24 4.77083e-15 1.27222e-14 20 1.59028e-15 3.02153e-14 8.41108e-15 -4.77083e-15 -5.66536e-15 19.9748 -1.02565 -2.81938 24 -5.56597e-15 1.27222e-14 20 -2.78299e-15 2.54444e-14 8.41108e-15 -4.77083e-15 -5.66536e-15 19.7815 -3.00948 -8.30515 24 -2.38542e-15 7.95139e-15 20 4.37326e-15 9.54166e-15 4.20659 -15.2572 -54.7145 -7.54432 24.1175 -116.61 29.7537 -18.3514 -38.4613 -36.8725 -9.26154 -15.349 -28.184 10.7294 -19.1592 -2.63498e-15 -7.95139e-15 10 7.0877e-15 -1.27222e-14 10 9.51682e-15 3.3048e-15 6.36111e-15 -19.9818 0.871897 -2.3964 -24 -4.77083e-15 -1.90833e-14 -20 3.18055e-15 -1.35174e-14 9.51682e-15 3.3048e-15 6.36111e-15 -20 0 -0 -24 9.54166e-15 7.95139e-15 -20 0 -1.03368e-14 9.51682e-15 3.3048e-15 6.36111e-15 -19.9748 -1.02565 2.81938 -24 4.77083e-15 3.18055e-15 -20 -1.59028e-15 9.54166e-15 9.51682e-15 3.3048e-15 6.36111e-15 -19.7815 -3.00948 8.30515 -24 0 3.97569e-15 -20 -3.97569e-15 -1.23246e-14 
0 0 0 0 0 -0 23.0475 5.53599 -137.635 33.3946 -36.11 28.5698 -4.21542 6.72951 6.42953 10.4692 18.4465 44.1849 37.5351 -9.90735 25.229 -22.8305 43.3838 25.1103 2.04196 -26.5815 11.7694 -4.27634 -6.32166 -9.96719 -0.965195 -1.69225 -2.39015 -1.6298 -2.80797 -3.90702 -0.348836 0.113958 2.73722 -0.860006 0.0233945 33.9727 -6.88814 9.40691 30.3501 5.482 8.05909 -8.97676 38.7466 -64.4725 0.522209 19.7619 -3.76122 127.925 8.98711 -29.1195 4.10109 28.184 10.7294 19.1592 2.40203e-14 0 -10 2.72052e-14 3.18055e-15 -10 6.64065e-15 -4.77083e-15 -4.05024e-15 19.9818 0.871897 2.3964 24 1.27222e-14 2.46493e-14 20 7.15625e-15 2.06736e-14 6.64065e-15 -4.77083e-15 -4.05024e-15 20 -3.18055e-15 9.54166e-15 24 7.95139e-15 1.11319e-14 20 3.18055e-15 3.49861e-14 6.64065e-15 -4.77083e-15 -4.05024e-15 19.9748 -1.02565 -2.81938 24 -4.77083e-15 1.43125e-14 20 -1.59028e-15 3.02153e-14 6.64065e-15 -4.77083e-15 -4.05024e-15 19.7815 -3.00948 -8.30515 24 -1.98785e-15 1.43125e-14 20 6.36111e-15 1.43125e-14 4.20155 -15.339 -54.6014 -7.50627 24.2224 -116.801 29.7585 -18.316 -38.3487 -36.9188 -9.22572 -15.4691 -28.184 10.7294 -19.1592 4.56402e-15 1.59028e-15 10 -2.60116e-15 -1.27222e-14 10 9.95166e-15 2.95692e-15 -0 -19.9818 0.871897 -2.3964 -24 -3.18055e-15 -1.90833e-14 -20 -3.18055e-15 -1.43125e-14 9.95166e-15 2.95692e-15 -0 -20 7.95139e-16 -6.36111e-15 -24 4.77083e-15 7.95139e-15 -20 1.59028e-15 -8.74653e-15 9.95166e-15 2.95692e-15 -0 -19.9748 -1.02565 2.81938 -24 1.59028e-15 -1.59028e-15 -20 1.59028e-15 1.59028e-15 9.95166e-15 2.95692e-15 -0 -19.7815 -3.00948 8.30515 -24 7.95139e-16 5.56597e-15 -20 -3.18055e-15 -1.15295e-14 
